<svg width="50" height="50" viewBox="0 0 50 50" fill="none" xmlns="http://www.w3.org/2000/svg">
<rect width="50" height="50" rx="25" fill="#005083"/>
<path fill-rule="evenodd" clip-rule="evenodd" d="M16 15C15.4477 15 15 15.4477 15 16C15 16.5523 15.4477 17 16 17H17V31C17 33.2091 18.7909 35 21 35H29C31.2091 35 33 33.2091 33 31V17H34C34.5523 17 35 16.5523 35 16C35 15.4477 34.5523 15 34 15H16ZM31 17H19V31C19 32.1046 19.8954 33 21 33H29C30.1046 33 31 32.1046 31 31V17Z" fill="white"/>
<path d="M25.7071 20.2929C25.3166 19.9024 24.6834 19.9024 24.2929 20.2929L21.2929 23.2929C20.9024 23.6834 20.9024 24.3166 21.2929 24.7071C21.6834 25.0976 22.3166 25.0976 22.7071 24.7071L24 23.4142V29C24 29.5523 24.4477 30 25 30C25.5523 30 26 29.5523 26 29V23.4142L27.2929 24.7071C27.6834 25.0976 28.3166 25.0976 28.7071 24.7071C29.0976 24.3166 29.0976 23.6834 28.7071 23.2929L25.7071 20.2929Z" fill="white"/>
</svg>
