<svg width="40" height="40" viewBox="0 0 40 40" fill="none" xmlns="http://www.w3.org/2000/svg">
<rect width="40" height="40" rx="10" fill="#FFA800"/>
<path fill-rule="evenodd" clip-rule="evenodd" d="M24.8643 39.9998H20.5443H16.22C16.22 39.9998 16.2319 37.4355 16.22 35.6755C10.3032 36.949 8.65242 32.4322 8.65242 32.4322C7.57134 30.2701 6.49026 29.189 6.49026 29.189C4.3281 27.9047 6.49026 28.1079 6.49026 28.1079C8.65242 28.1079 9.7335 30.2701 9.7335 30.2701C11.6308 33.4928 15.007 32.9739 16.22 32.4322C16.22 31.3512 16.6935 29.7166 17.3011 29.189C12.5789 28.6571 8.6481 25.9458 8.6481 20.5404C8.6481 15.135 9.7335 14.0539 10.8146 12.9728C10.5962 12.4398 9.69134 10.4701 10.8481 7.56738C10.8481 7.56738 12.9724 7.56738 15.1346 10.8106C16.2059 9.73927 19.4589 9.72955 20.5411 9.72955C21.6211 9.72955 24.874 9.73927 25.9454 10.8106C28.1076 7.56738 30.2362 7.56738 30.2362 7.56738C31.393 10.4701 30.4881 12.4398 30.2697 12.9728C31.3508 14.0539 32.4319 15.135 32.4319 20.5404C32.4319 25.9458 28.5054 28.6571 23.7832 29.189C24.3908 29.7166 24.8643 31.5782 24.8643 32.4322V39.9998Z" fill="white"/>
</svg>
