<svg width="40" height="40" viewBox="0 0 40 40" fill="none" xmlns="http://www.w3.org/2000/svg">
<rect width="40" height="40" rx="10" fill="#FFA800"/>
<path d="M33.861 12.6141C32.8742 13.0525 31.3998 13.6348 30.2889 13.7679C31.4257 13.0874 32.5563 11.4808 32.968 10.1958C32.1009 10.711 31.1042 11.4058 30.0862 11.7791L29.3959 11.0888C28.3948 10.0198 27.4045 9.30273 25.8238 9.30273C22.7893 9.30273 20.4657 11.6264 20.4657 14.6609C20.4657 15.0172 20.5076 15.286 20.5639 15.5146L20.4657 15.5539C15.1075 15.5539 11.5658 14.4144 8.85636 11.0888C8.38216 11.8996 7.96334 12.7605 7.96334 13.7679C7.96334 15.6754 9.16713 17.2453 10.6424 18.233C9.74135 18.2035 8.70365 17.749 7.96334 17.3399C7.96334 20.0012 11.7015 23.0839 14.2145 23.5911C13.3215 24.4841 10.0861 23.6572 9.74938 23.5911C10.4495 25.7763 12.7044 27.1177 15.1075 27.1632C13.2277 28.6349 10.9576 29.4047 8.38216 29.4047C7.93744 29.4047 7.50075 29.3788 7.07031 29.3297C9.50202 30.8871 12.8955 31.6283 16.0005 31.6283C26.1114 31.6283 31.1819 23.7099 31.1819 16.4469C31.1819 16.2076 31.1891 15.7897 31.1819 15.5539C32.2545 14.7788 33.1216 13.7161 33.861 12.6141Z" fill="white"/>
</svg>
