<svg width="40" height="40" viewBox="0 0 40 40" fill="none" xmlns="http://www.w3.org/2000/svg">
<rect width="40" height="40" rx="10" fill="#FFA800"/>
<path d="M33.2098 19.4496C33.2246 16.869 30.0721 15.4862 28.1901 17.25C25.9633 15.7098 22.7466 14.9756 19.5747 15.037L21.4411 9.34123L26.5545 10.5452C26.2074 12.0209 27.3803 13.6114 28.97 13.575C32.2545 13.4451 32.2553 8.75163 28.97 8.62147C28.0933 8.62147 27.3258 9.07897 26.8855 9.76619L21.2598 8.44181C21.049 8.3923 20.8351 8.51189 20.7675 8.71798L18.6844 15.0757C16.0899 15.2495 13.5907 15.9607 11.7635 17.2088C9.87512 15.5054 6.76969 16.896 6.78915 19.4493C6.78915 20.4873 7.32703 21.4515 8.21032 21.9969C7.16822 33.5718 32.6194 33.6037 31.6897 22.0561C32.6325 21.5282 33.2146 20.5304 33.2098 19.4496ZM14.1689 21.4509C14.1689 20.4458 15.0158 19.6023 16.0248 19.6023C18.4294 19.6971 18.4555 23.1883 16.0248 23.2715C15.0155 23.2715 14.1689 22.4558 14.1689 21.4509ZM24.2567 26.6344C22.7282 28.4021 17.2677 28.4027 15.74 26.6344C15.2906 26.168 15.9706 25.4847 16.4386 25.9364C17.5973 27.3172 22.3998 27.3164 23.5592 25.9364C24.0229 25.4864 24.7092 26.1678 24.2567 26.6344ZM24.0012 23.2784C22.9958 23.2784 22.1514 22.4602 22.1514 21.4509C22.2638 19.0096 25.7205 18.981 25.8206 21.4509C25.8206 22.4602 25.0065 23.2784 24.0012 23.2784Z" fill="white"/>
</svg>
