<svg width="40" height="40" viewBox="0 0 40 40" fill="none" xmlns="http://www.w3.org/2000/svg">
<rect width="40" height="40" rx="10" fill="#FFA800"/>
<path d="M30.6688 12.4717C27.2763 9.93305 24.0259 10.0044 24.0259 10.0044L23.6937 10.3839C27.7269 11.5939 29.6012 13.3732 29.6012 13.3732C23.8308 10.1962 16.4809 10.219 10.479 13.3732C10.479 13.3732 12.4244 11.4989 16.695 10.2889L16.4578 10.0041C16.4578 10.0041 13.2311 9.93305 9.81492 12.4714C9.81492 12.4714 6.39844 18.6161 6.39844 26.1844C6.39844 26.1844 8.39148 29.6009 13.6346 29.767C13.6346 29.767 14.5124 28.7231 15.2241 27.8216C12.2112 26.9201 11.0723 25.0458 11.0723 25.0458C12.9652 26.2303 14.8792 26.9716 17.2646 27.4421C21.1453 28.2408 25.9724 27.4196 29.5778 25.0458C29.5778 25.0458 28.3915 26.9675 25.2835 27.8453C25.9952 28.7231 26.8494 29.7433 26.8494 29.7433C32.0925 29.5772 34.0853 26.1607 34.0853 26.1847C34.085 18.6164 30.6688 12.4717 30.6688 12.4717ZM15.8171 23.9782C14.4885 23.9782 13.3972 22.8156 13.3972 21.3685C13.4943 17.9026 18.1643 17.9132 18.2371 21.3685C18.2371 22.8156 17.1692 23.9782 15.8171 23.9782ZM24.4765 23.9782C23.1478 23.9782 22.0565 22.8156 22.0565 21.3685C22.1631 17.9094 26.7748 17.9079 26.8964 21.3685C26.8964 22.8156 25.8289 23.9782 24.4765 23.9782Z" fill="white"/>
</svg>
