<svg width="40" height="40" viewBox="0 0 40 40" fill="none" xmlns="http://www.w3.org/2000/svg">
<rect width="40" height="40" rx="10" fill="#FFA800"/>
<path d="M30.2 10.4139C26.9194 11.7726 12.8526 17.5993 8.96593 19.1873C6.35937 20.2045 7.88529 21.1582 7.88529 21.1582C7.88529 21.1582 10.1103 21.9211 12.0178 22.4933C13.925 23.0654 14.9421 22.4298 14.9421 22.4298L23.9062 16.3901C27.0849 14.2286 26.3221 16.0086 25.559 16.7717C23.9062 18.4248 21.1725 21.0311 18.8837 23.1292C17.8665 24.0192 18.375 24.782 18.8203 25.1635C20.4731 26.5623 24.9871 29.4232 25.2412 29.6138C26.5842 30.5646 29.226 31.9332 29.6278 29.0417L31.2172 19.0604C31.7259 15.691 32.2344 12.5757 32.2978 11.6857C32.4887 9.5239 30.2 10.4139 30.2 10.4139Z" fill="white"/>
</svg>
