<svg width="28" height="28" viewBox="0 0 28 28" fill="none" xmlns="http://www.w3.org/2000/svg">
<path d="M27.822 13.4556C27.5719 13.1134 21.6119 5.07715 13.9999 5.07715C6.38784 5.07715 0.427548 13.1134 0.17768 13.4553C-0.0592267 13.7799 -0.0592267 14.2202 0.17768 14.5448C0.427548 14.887 6.38784 22.9233 13.9999 22.9233C21.6119 22.9233 27.5719 14.887 27.822 14.5451C28.0593 14.2205 28.0593 13.7799 27.822 13.4556ZM13.9999 21.0772C8.3928 21.0772 3.53648 15.7433 2.09891 13.9996C3.53462 12.2544 8.38077 6.92329 13.9999 6.92329C19.6067 6.92329 24.4626 12.2562 25.9008 14.0009C24.4651 15.746 19.619 21.0772 13.9999 21.0772Z" fill="#FFA800"/>
<path d="M13.9994 8.46191C10.9456 8.46191 8.46094 10.9465 8.46094 14.0004C8.46094 17.0543 10.9456 19.5389 13.9994 19.5389C17.0533 19.5389 19.5379 17.0543 19.5379 14.0004C19.5379 10.9465 17.0533 8.46191 13.9994 8.46191ZM13.9994 17.6927C11.9634 17.6927 10.3071 16.0364 10.3071 14.0004C10.3071 11.9644 11.9635 10.3081 13.9994 10.3081C16.0354 10.3081 17.6917 11.9644 17.6917 14.0004C17.6917 16.0364 16.0354 17.6927 13.9994 17.6927Z" fill="#FFA800"/>
</svg>
