<svg width="34" height="18" viewBox="0 0 34 18" fill="none" xmlns="http://www.w3.org/2000/svg">
<path d="M6.76093 6.5498C5.40976 6.5498 4.31055 7.64914 4.31055 9.0003C4.31055 10.3515 5.40988 11.4508 6.76093 11.4508C8.11197 11.4508 9.21131 10.3515 9.21131 9.0003C9.21131 7.64914 8.11197 6.5498 6.76093 6.5498ZM6.76093 9.74693C6.34927 9.74693 6.01441 9.41195 6.01441 9.0003C6.01441 8.58865 6.34927 8.25367 6.76093 8.25367C7.17258 8.25367 7.50744 8.58865 7.50744 9.0003C7.50744 9.41195 7.17258 9.74693 6.76093 9.74693Z" fill="#8D8D8D"/>
<path d="M33.7761 9.11859L31.5887 6.38423C31.3947 6.14171 31.1009 6.00052 30.7903 6.00052H17.2058C15.9852 2.52033 12.6565 0.15332 8.84656 0.15332C3.96863 0.15332 0 4.12196 0 9C0 13.878 3.96863 17.8467 8.84656 17.8467C12.0857 17.8467 14.9652 16.2025 16.5125 13.5138H18.9143L20.9686 15.6414C21.1719 15.8521 21.4567 15.9641 21.7484 15.9527C22.0409 15.9399 22.314 15.8024 22.4983 15.5749L23.767 14.0094L25.4464 15.6603C25.8417 16.049 26.475 16.0516 26.8735 15.6663L29.1003 13.5138H30.7903C31.1009 13.5138 31.3947 13.3726 31.5887 13.13L33.7761 10.3958C34.0747 10.0225 34.0747 9.49196 33.7761 9.11859ZM30.299 11.4691H28.687C28.4219 11.4691 28.1671 11.5721 27.9765 11.7564L26.169 13.5035L24.3978 11.7623C24.1921 11.5603 23.9116 11.4549 23.6235 11.4706C23.3357 11.487 23.0682 11.6238 22.8869 11.8477L21.6371 13.3901L20.0837 11.7813C19.8911 11.5818 19.6256 11.469 19.3482 11.469H15.8959C15.5023 11.469 15.1437 11.6949 14.9738 12.05C13.8661 14.3643 11.5183 15.8019 8.84656 15.8019C5.09591 15.802 2.04463 12.7507 2.04463 9C2.04463 5.24934 5.09591 2.19795 8.84656 2.19795C11.9925 2.19795 14.7093 4.28371 15.4538 7.27013C15.5673 7.72551 15.9764 8.04515 16.4457 8.04515H30.2988L31.6685 9.7572L30.299 11.4691Z" fill="#8D8D8D"/>
</svg>
